<?xml version="1.0" standalone="no"?>
<!DOCTYPE svg PUBLIC "-//W3C//DTD SVG 20010904//EN"
 "http://www.w3.org/TR/2001/REC-SVG-20010904/DTD/svg10.dtd">
<svg version="1.0" xmlns="http://www.w3.org/2000/svg"
 width="500.000000pt" height="500.000000pt" viewBox="0 0 500.000000 500.000000"
 preserveAspectRatio="xMidYMid meet">
<metadata>
Created by potrace 1.14, written by Peter Selinger 2001-2017
</metadata>
<g transform="translate(0.000000,500.000000) scale(0.100000,-0.100000)"
fill="#000000" stroke="none">
<path d="M2094 4071 c-56 -34 -105 -114 -178 -293 -19 -46 -81 -195 -139 -333
-106 -254 -141 -346 -290 -769 -66 -188 -86 -235 -92 -216 -4 13 -4 107 -1
209 17 487 56 732 121 775 34 23 35 84 1 123 -21 24 -27 26 -49 16 -58 -27
-115 -232 -172 -628 -80 -558 -52 -835 86 -835 30 0 43 7 68 35 48 55 63 91
174 426 77 231 151 427 282 739 97 234 179 427 182 430 3 3 2 -157 -1 -355
-11 -546 13 -976 64 -1146 27 -90 56 -131 107 -149 93 -32 134 17 325 385 252
485 336 635 355 635 5 0 18 -39 31 -87 41 -162 142 -340 236 -416 124 -102
231 -103 439 -4 190 90 387 250 387 314 0 33 -16 53 -42 53 -25 0 -129 -53
-213 -110 -189 -127 -301 -180 -376 -180 -116 0 -192 99 -269 350 -44 143 -81
220 -119 253 -40 33 -67 34 -112 4 -57 -38 -99 -111 -402 -692 -131 -253 -173
-326 -192 -332 -18 -6 -34 137 -47 407 -9 195 -9 366 0 725 14 555 9 614 -54
664 -33 26 -69 27 -110 2z"/>
<path d="M880 1613 c0 -5 -9 -61 -19 -125 -17 -113 -17 -118 0 -118 11 0 19 9
21 22 4 33 36 35 44 4 4 -16 13 -26 25 -26 10 0 17 5 14 13 -2 6 -11 63 -21
125 -16 107 -18 112 -40 112 -13 0 -24 -3 -24 -7z m33 -115 c5 -30 3 -38 -10
-38 -11 0 -14 6 -9 23 3 12 6 31 6 41 0 29 6 16 13 -26z"/>
<path d="M1160 1495 c0 -104 2 -125 15 -125 12 0 15 15 16 68 l1 67 20 -67
c16 -52 25 -68 39 -68 18 0 19 10 19 125 0 118 -1 125 -20 125 -18 0 -20 -7
-21 -67 0 -38 -2 -63 -4 -58 -2 6 -11 36 -20 68 -10 36 -21 57 -30 57 -12 0
-15 -22 -15 -125z"/>
<path d="M1460 1605 c0 -9 9 -15 25 -15 14 0 25 -4 25 -8 0 -5 -11 -42 -25
-82 -14 -40 -25 -86 -25 -102 0 -27 2 -28 45 -28 38 0 45 3 45 20 0 15 -7 20
-25 20 -14 0 -25 4 -25 8 0 5 11 42 25 82 14 40 25 84 25 97 0 21 -5 23 -45
23 -33 0 -45 -4 -45 -15z"/>
<path d="M1770 1613 c0 -5 -9 -61 -19 -125 -17 -113 -17 -118 0 -118 11 0 19
9 21 22 4 33 36 35 44 4 4 -16 13 -26 25 -26 10 0 17 5 14 13 -2 6 -11 63 -21
125 -16 107 -18 112 -40 112 -13 0 -24 -3 -24 -7z m33 -115 c5 -30 3 -38 -10
-38 -11 0 -14 6 -9 23 3 12 6 31 6 41 0 29 6 16 13 -26z"/>
<path d="M2050 1496 c0 -105 2 -126 15 -126 11 0 15 12 15 50 0 28 4 50 9 50
5 0 12 -22 16 -50 6 -40 11 -50 26 -50 22 0 22 0 8 60 -7 32 -7 57 1 86 17 61
-2 98 -53 102 l-37 3 0 -125z m58 48 c-5 -42 -28 -43 -28 -1 0 18 3 37 7 41
12 12 25 -11 21 -40z"/>
<path d="M2807 1508 c-10 -62 -17 -119 -17 -125 0 -24 30 -13 36 12 4 16 13
25 25 25 14 0 19 -7 19 -25 0 -18 5 -25 20 -25 16 0 19 5 16 23 -3 12 -10 56
-16 97 -19 129 -19 130 -44 130 -21 0 -24 -7 -39 -112z m52 -30 c1 -10 -3 -18
-9 -18 -5 0 -10 19 -9 43 1 36 2 38 9 17 4 -14 8 -33 9 -42z"/>
<path d="M3100 1495 c0 -118 1 -125 20 -125 18 0 20 7 20 55 0 42 3 55 15 55
12 0 15 -13 15 -55 0 -42 3 -55 15 -55 13 0 15 21 15 125 0 104 -2 125 -15
125 -11 0 -15 -12 -15 -50 0 -38 -4 -50 -15 -50 -11 0 -15 12 -15 50 0 43 -3
50 -20 50 -19 0 -20 -7 -20 -125z"/>
<path d="M3400 1495 c0 -118 1 -125 20 -125 18 0 20 7 21 73 l1 72 10 -60 c17
-111 25 -111 43 -3 l12 73 2 -77 c1 -62 4 -78 16 -78 13 0 15 21 15 126 0 124
0 125 -22 122 -19 -2 -25 -13 -34 -58 l-10 -55 -13 58 c-11 50 -15 57 -37 57
l-24 0 0 -125z"/>
<path d="M3770 1613 c0 -5 -9 -61 -19 -125 -17 -113 -17 -118 0 -118 11 0 19
9 21 22 4 33 36 35 44 4 4 -16 13 -26 25 -26 10 0 17 5 14 13 -2 6 -11 63 -21
125 -16 107 -18 112 -40 112 -13 0 -24 -3 -24 -7z m33 -115 c5 -30 3 -38 -10
-38 -11 0 -14 6 -9 23 3 12 6 31 6 41 0 29 6 16 13 -26z"/>
<path d="M4050 1495 l0 -125 28 0 c55 0 67 19 71 114 4 106 -10 136 -64 136
l-35 0 0 -125z m58 0 c-2 -52 -7 -80 -15 -83 -10 -3 -13 18 -13 81 0 46 3 87
7 91 16 16 24 -16 21 -89z"/>
</g>
</svg>
